<svg xmlns="http://www.w3.org/2000/svg" width="805" height="600"><rect width="805" height="600" x="0" y="0" fill="#FFFFFF" id="backgorund"/><g id="viz"><g transform="translate(0,0)"><g id="pie" transform="translate(100.625,104)"><path fill="#1f77b4" stroke="#FFFFFF" d="M1.085090486049102e-15,-17.720872447542984A17.720872447542984,17.720872447542984,0,1,1,-1.085090486049102e-15,17.720872447542984A17.720872447542984,17.720872447542984,0,1,1,1.085090486049102e-15,-17.720872447542984Z"/></g><text y="82.27912755245701" x="100.625" style="font-family: Arial, sans-serif; font-size: 12px; fill: black; font-weight: bold; dominant-baseline: auto; text-anchor: middle;">Animation</text></g><g transform="translate(201.25,0)"><g id="pie" transform="translate(100.625,104)"><path fill="#1f77b4" stroke="#FFFFFF" d="M5.261570088435762e-15,-85.92796048785776A85.92796048785776,85.92796048785776,0,1,1,-5.261570088435762e-15,85.92796048785776A85.92796048785776,85.92796048785776,0,1,1,5.261570088435762e-15,-85.92796048785776Z"/></g><text y="14.07203951214224" x="100.625" style="font-family: Arial, sans-serif; font-size: 12px; fill: black; font-weight: bold; dominant-baseline: auto; text-anchor: middle;">Comedy</text></g><g transform="translate(402.5,0)"><g id="pie" transform="translate(100.625,104)"><path fill="#1f77b4" stroke="#FFFFFF" d="M3.8669434064919165e-15,-63.151978336680145A63.151978336680145,63.151978336680145,0,1,1,-3.8669434064919165e-15,63.151978336680145A63.151978336680145,63.151978336680145,0,1,1,3.8669434064919165e-15,-63.151978336680145Z"/></g><text y="36.848021663319855" x="100.625" style="font-family: Arial, sans-serif; font-size: 12px; fill: black; font-weight: bold; dominant-baseline: auto; text-anchor: middle;">Docu-Series</text></g><g transform="translate(603.75,0)"><g id="pie" transform="translate(100.625,104)"><path fill="#1f77b4" stroke="#FFFFFF" d="M4.698579631616631e-15,-76.73362858397972A76.73362858397972,76.73362858397972,0,1,1,-4.698579631616631e-15,76.73362858397972A76.73362858397972,76.73362858397972,0,1,1,4.698579631616631e-15,-76.73362858397972Z"/></g><text y="23.266371416020277" x="100.625" style="font-family: Arial, sans-serif; font-size: 12px; fill: black; font-weight: bold; dominant-baseline: auto; text-anchor: middle;">Drama</text></g><g transform="translate(0,200)"><g id="pie" transform="translate(100.625,104)"><path fill="#1f77b4" stroke="#FFFFFF" d="M5.75583995599256e-15,-94A94,94,0,1,1,-5.75583995599256e-15,94A94,94,0,1,1,5.75583995599256e-15,-94Z"/></g><text y="6" x="100.625" style="font-family: Arial, sans-serif; font-size: 12px; fill: black; font-weight: bold; dominant-baseline: auto; text-anchor: middle;">Family Animation</text></g><g transform="translate(201.25,200)"><g id="pie" transform="translate(100.625,104)"><path fill="#1f77b4" stroke="#FFFFFF" d="M1.3832243905945623e-15,-22.5897686019776A22.5897686019776,22.5897686019776,0,1,1,-1.3832243905945623e-15,22.5897686019776A22.5897686019776,22.5897686019776,0,1,1,1.3832243905945623e-15,-22.5897686019776Z"/></g><text y="77.4102313980224" x="100.625" style="font-family: Arial, sans-serif; font-size: 12px; fill: black; font-weight: bold; dominant-baseline: auto; text-anchor: middle;">Family Live Action</text></g><g transform="translate(402.5,200)"><g id="pie" transform="translate(100.625,104)"><path fill="#1f77b4" stroke="#FFFFFF" d="M3.042609975976792e-15,-49.689591776097004A49.689591776097004,49.689591776097004,0,1,1,-3.042609975976792e-15,49.689591776097004A49.689591776097004,49.689591776097004,0,1,1,3.042609975976792e-15,-49.689591776097004Z"/></g><text y="50.310408223902996" x="100.625" style="font-family: Arial, sans-serif; font-size: 12px; fill: black; font-weight: bold; dominant-baseline: auto; text-anchor: middle;">Foreign Language</text></g><g transform="translate(603.75,200)"><g id="pie" transform="translate(100.625,104)"><path fill="#1f77b4" stroke="#FFFFFF" d="M2.1633885267293635e-15,-35.33081584397393A35.33081584397393,35.33081584397393,0,1,1,-2.1633885267293635e-15,35.33081584397393A35.33081584397393,35.33081584397393,0,1,1,2.1633885267293635e-15,-35.33081584397393Z"/></g><text y="64.66918415602606" x="100.625" style="font-family: Arial, sans-serif; font-size: 12px; fill: black; font-weight: bold; dominant-baseline: auto; text-anchor: middle;">Marvel</text></g><g transform="translate(0,400)"><g id="pie" transform="translate(100.625,104)"><path fill="#1f77b4" stroke="#FFFFFF" d="M1.2896153205961904e-15,-21.061016474204166A21.061016474204166,21.061016474204166,0,1,1,-1.2896153205961904e-15,21.061016474204166A21.061016474204166,21.061016474204166,0,1,1,1.2896153205961904e-15,-21.061016474204166Z"/></g><text y="78.93898352579583" x="100.625" style="font-family: Arial, sans-serif; font-size: 12px; fill: black; font-weight: bold; dominant-baseline: auto; text-anchor: middle;">Reality</text></g><g transform="translate(201.25,400)"><g id="pie" transform="translate(100.625,104)"><path fill="#1f77b4" stroke="#FFFFFF" d="M1.2131680442720395e-15,-19.81253770665459A19.81253770665459,19.81253770665459,0,1,1,-1.2131680442720395e-15,19.81253770665459A19.81253770665459,19.81253770665459,0,1,1,1.2131680442720395e-15,-19.81253770665459Z"/></g><text y="80.1874622933454" x="100.625" style="font-family: Arial, sans-serif; font-size: 12px; fill: black; font-weight: bold; dominant-baseline: auto; text-anchor: middle;">Talk Show</text></g></g></svg>